<svg xmlns="http://www.w3.org/2000/svg" version="1.1" xmlns:xlink="http://www.w3.org/1999/xlink" xmlns:svgjs="http://svgjs.dev/svgjs" width="1000" height="623" viewBox="0 0 1000 623"><g transform="matrix(1,0,0,1,-0.6060606060606233,0.2522267206477409)"><svg viewBox="0 0 396 247" data-background-color="#ffffff" preserveAspectRatio="xMidYMid meet" height="623" width="1000" xmlns="http://www.w3.org/2000/svg" xmlns:xlink="http://www.w3.org/1999/xlink">
<g id="tight-bounds" transform="matrix(1,0,0,1,0.2400000000000091,-0.09999999999999432)">
<svg viewBox="0 0 395.52 247.2" height="247.2" width="395.52">
<g><svg viewBox="0 0 395.52 247.2" height="247.2" width="395.52">
<g transform="matrix(1,0,0,1,0,91.41968593400318)">
<svg viewBox="0 0 395.52 64.36062813199364" height="64.36062813199364" width="395.52">
<g><svg viewBox="0 0 488.6105346120528 79.50869973589435" height="64.36062813199364" width="395.52">
<g transform="matrix(1,0,0,1,0,10.988539543817527)"><svg viewBox="0 0 395.52 57.5316206482593" height="57.5316206482593" width="395.52">
<g><svg viewBox="0 0 395.52 57.5316206482593" height="57.5316206482593" width="395.52"><g>
<svg viewBox="0 0 395.52 57.5316206482593" height="57.5316206482593" width="395.52">
<g transform="matrix(1,0,0,1,0,0)">
<svg width="395.52" viewBox="2.299999952316284 -35.5 249.8699951171875 36.349998474121094" height="57.5316206482593" data-palette-color="#ffdc00">
<path d="M11.05-34.65Q15.55-34.65 18.78-33.33 22-32 24.03-28.23 26.05-24.45 26.05-17.5L26.05-17.5Q26.05-7.75 22.13-3.88 18.2 0 11.6 0L11.6 0 2.3 0 2.3-34.65 11.05-34.65ZM12.05-29L10.15-29 10.15-5.7 12.05-5.7Q14.05-5.7 15.33-6.73 16.6-7.75 17.3-10.33 18-12.9 18-17.5L18-17.5Q18-22.15 17.28-24.65 16.55-27.15 15.28-28.08 14-29 12.05-29L12.05-29ZM53.2 0L45.25 0 43.85-7.6 36.15-7.6 34.8 0 27 0 35.4-34.65 44.8-34.65 53.2 0ZM40-28.9L37.2-13.25 42.85-13.25 40-28.9ZM67.4-35.5Q70.15-35.5 72.37-34.55 74.59-33.6 76.55-31.7L76.55-31.7 72.9-27.4Q71.65-28.5 70.47-29.08 69.3-29.65 67.95-29.65L67.95-29.65Q65.2-29.65 63.75-26.83 62.3-24 62.3-17.4L62.3-17.4Q62.3-10.95 63.77-8.1 65.25-5.25 68-5.25L68-5.25Q69.5-5.25 70.59-5.85 71.7-6.45 73.3-7.75L73.3-7.75 76.84-3.55Q75.05-1.6 72.65-0.38 70.25 0.85 67.3 0.85L67.3 0.85Q61.3 0.85 57.72-3.75 54.15-8.35 54.15-17.4L54.15-17.4Q54.15-23.35 55.82-27.4 57.5-31.45 60.5-33.48 63.5-35.5 67.4-35.5L67.4-35.5ZM102.19 0L94.34 0 94.34-14.95 87.09-14.95 87.09 0 79.24 0 79.24-34.65 87.09-34.65 87.09-21.1 94.34-21.1 94.34-34.65 102.19-34.65 102.19 0ZM106.79-34.65L114.64-34.65 114.64 0 106.79 0 106.79-34.65ZM124.69-20.8L119.89-20.8 119.09-34.65 125.49-34.65 124.69-20.8ZM139.64-35.5Q142.89-35.5 145.36-34.4 147.84-33.3 149.89-31.1L149.89-31.1 146.44-27Q143.44-29.75 140.49-29.75L140.49-29.75Q138.78-29.75 137.84-28.75 136.89-27.75 136.89-26.1L136.89-26.1Q136.89-24.5 137.99-23.48 139.09-22.45 142.24-21.1L142.24-21.1Q145.14-19.8 146.94-18.43 148.74-17.05 149.66-15.05 150.59-13.05 150.59-10.1L150.59-10.1Q150.59-6.95 149.16-4.45 147.74-1.95 145.09-0.55 142.44 0.85 138.89 0.85L138.89 0.85Q135.19 0.85 132.49-0.45 129.78-1.75 127.64-4.05L127.64-4.05 131.39-8.2Q133.19-6.6 134.81-5.78 136.44-4.95 138.28-4.95L138.28-4.95Q140.34-4.95 141.39-6.18 142.44-7.4 142.44-9.5L142.44-9.5Q142.44-11.4 141.39-12.63 140.34-13.85 137.59-14.95L137.59-14.95Q132.78-16.95 130.78-19.38 128.78-21.8 128.78-25.5L128.78-25.5Q128.78-28.45 130.19-30.73 131.59-33 134.06-34.25 136.53-35.5 139.64-35.5L139.64-35.5ZM185.93 0L178.08 0 178.08-14.95 170.83-14.95 170.83 0 162.98 0 162.98-34.65 170.83-34.65 170.83-21.1 178.08-21.1 178.08-34.65 185.93-34.65 185.93 0ZM190.53-34.65L208.83-34.65 208.03-29.05 198.38-29.05 198.38-20.35 206.88-20.35 206.88-14.85 198.38-14.85 198.38-5.7 208.68-5.7 208.68 0 190.53 0 190.53-34.65ZM212.13-34.65L219.98-34.65 219.98-6.2 230.88-6.2 230.08 0 212.13 0 212.13-34.65ZM233.42-34.65L241.27-34.65 241.27-6.2 252.17-6.2 251.37 0 233.42 0 233.42-34.65Z" opacity="1" transform="matrix(1,0,0,1,0,0)" fill="#ffdc00" class="undefined-text-0" data-fill-palette-color="primary" id="text-0"></path></svg></g></svg></g></svg></g></svg></g><g transform="matrix(1,0,0,1,409.1018348761584,0)"><svg viewBox="0 0 79.50869973589435 79.50869973589435" height="79.50869973589435" width="79.50869973589435"><g data-palette-color="#d90000"><rect width="21.732377927811125" height="79.50869973589435" fill="#d90000" stroke="transparent" data-fill-palette-color="accent" x="0" fill-opacity="1"></rect><rect width="21.732377927811125" height="79.50869973589435" fill="#d90000" stroke="transparent" data-fill-palette-color="accent" x="26.502899911964786" fill-opacity="0.75"></rect><rect width="21.732377927811125" height="79.50869973589435" fill="#d90000" stroke="transparent" data-fill-palette-color="accent" x="53.00579982392957" fill-opacity="0.5"></rect></g></svg></g></svg></g></svg></g></svg></g><defs></defs></svg><rect width="395.52" height="247.2" fill="none" stroke="none" visibility="hidden"></rect></g></svg></g></svg>