<?xml version="1.0" standalone="no"?>
<!DOCTYPE svg PUBLIC "-//W3C//DTD SVG 20010904//EN"
 "http://www.w3.org/TR/2001/REC-SVG-20010904/DTD/svg10.dtd">
<svg version="1.0" xmlns="http://www.w3.org/2000/svg"
 width="1273.000000pt" height="216.000000pt" viewBox="0 0 1273.000000 216.000000" color="black"
 preserveAspectRatio="xMidYMid meet">
<metadata>
 fill="black"
</metadata>
<g  transform="translate(0.000000,216.000000) scale(0.100000,-0.100000)"
fill="#000000" stroke="none">
<path fill="red" d="M10697 2123 c-4 -3 -7 -474 -7 -1045 l0 -1038 290 0 290 0 0 1045 0
1045 -283 0 c-156 0 -287 -3 -290 -7z"/>
<path fill="red" d="M11390 1085 l0 -1045 285 0 285 0 0 1045 0 1045 -285 0 -285 0 0
-1045z"/>
<path fill="red" d="M12080 1085 l0 -1045 290 0 290 0 -2 1042 -3 1043 -287 3 -288 2 0
-1045z"/>
</g>
</svg>
